<svg width="205" height="408" viewBox="0 0 205 408" fill="none" xmlns="http://www.w3.org/2000/svg">
<rect x="0.5" y="0.5" width="204" height="407" rx="19.5" fill="white" stroke="#E6E5E5"/>
<path d="M190.67 33.76C190.67 22.35 181.33 13.02 169.92 13.01H147.19C146.23 13.01 145.45 13.79 145.45 14.75C145.45 21.42 139.99 26.88 133.32 26.88H65.39C58.72 26.88 53.26 21.42 53.26 14.75V14.74C53.26 13.78 52.48 13 51.52 13H34.75C23.34 13 14 22.34 14 33.75L14.03 374.89C14.03 386.3 23.37 395.63 34.78 395.64L169.96 395.65C181.37 395.65 190.71 386.31 190.71 374.9L190.67 33.76Z" fill="#F7F7F7"/>
<path fill-rule="evenodd" clip-rule="evenodd" d="M93.3811 57.3442V56.551C93.9232 56.9911 94.8567 57.3294 95.6115 57.3442C97.4594 57.3781 99.1197 55.8804 99.1197 54.1876C99.1197 51.2467 95.1891 50.2496 93.3796 52.0281L93.3767 49L90.9616 49.5716L90.9646 57.3442H91.034H93.3811ZM94.4683 52.3368C95.3028 52.164 96.1906 52.8671 96.5111 54.0709C96.8316 55.2762 96.3914 56.2496 95.5584 56.4225C93.5392 56.842 92.4579 52.7548 94.4683 52.3368Z" fill="#A51B42"/>
<path fill-rule="evenodd" clip-rule="evenodd" d="M107.004 56.26C106.535 56.4904 105.963 56.6248 105.346 56.6248C105.171 56.6248 105 56.6145 104.835 56.5938C103.65 56.4461 102.715 55.7961 102.496 54.9704L105.018 54.2777L106.586 53.8464L107.083 53.7105C106.963 52.0945 106.01 51.1492 103.817 51.1492C101.623 51.1492 99.8818 52.2526 99.8818 54.2408C99.8818 56.2348 101.632 57.3441 103.836 57.3441C105.137 57.3441 106.284 57.0015 107.004 56.26ZM102.276 54.3235C102.006 53.0487 102.384 51.9291 103.171 51.7696C104.256 51.548 104.936 52.7297 104.824 53.6248L102.65 54.2215L102.486 54.2659L102.276 54.3235Z" fill="#A51B42"/>
<path fill-rule="evenodd" clip-rule="evenodd" d="M75.6247 57.3441C76.9261 57.3441 78.0708 57.0015 78.7931 56.26C78.3234 56.4904 77.7518 56.6248 77.1344 56.6248C76.9601 56.6248 76.7887 56.6145 76.6233 56.5938C73.4002 56.192 73.4637 52.0753 74.96 51.7696C75.4844 51.6632 76.0649 52.0059 76.5154 52.6145C76.6602 52.8094 76.7902 53.031 76.9024 53.2732L78.5775 52.031C77.8522 51.418 76.799 51.1492 75.6247 51.1492C73.4312 51.1492 71.6705 52.2511 71.6705 54.2408C71.6705 56.2348 73.4209 57.3441 75.6247 57.3441Z" fill="#A51B42"/>
<path fill-rule="evenodd" clip-rule="evenodd" d="M81.8448 49L79.4297 49.5716V57.3442H81.8448V49Z" fill="#A51B42"/>
<path fill-rule="evenodd" clip-rule="evenodd" d="M87.3308 56.2924V57.3441H89.7755V56.3116V51.9084V51.0856H89.7459L87.3308 51.6573V51.9704V53.22V55.3781C86.8212 55.7548 85.2526 56.6765 85.2526 55.4342V51.9704V51.0856L82.8375 51.6573V55.5096V55.7075C82.8375 56.8582 83.7016 57.3486 84.7105 57.3456C85.1595 57.3441 85.6366 57.2821 86.0783 57.0709C86.5229 56.8582 86.9261 56.5672 87.3308 56.2924Z" fill="#A51B42"/>
<path fill-rule="evenodd" clip-rule="evenodd" d="M76.3176 62.5406C74.9188 61.7238 74.9557 60.2614 76.777 60.2614C78.4284 60.2614 80.3043 61.9247 81.5185 62.9601L83.8685 60.0591C81.9793 59.1758 80.2806 58.8035 78.0133 58.8035C76.099 58.8035 74.3589 59.0753 73.1004 59.8907C71.3043 61.0561 70.3545 63.4579 71.7193 65.0857C72.1979 65.6573 72.9114 66.1506 73.7267 66.5953C76.4904 68.1019 80.4328 69.0325 80.4328 70.4254C80.4328 71.8478 77.9069 71.7356 76.6204 71.1374C74.9867 70.3781 73.3914 68.9335 72.579 68.2393L70 71.3929C71.9778 72.452 74.3456 73.1004 76.7341 73.1004C80.5451 73.1004 84.3516 71.9187 84.3516 68.4431C84.3516 64.8286 78.709 63.9379 76.3176 62.5406Z" fill="#E62B5B"/>
<path fill-rule="evenodd" clip-rule="evenodd" d="M113.727 62.486C109.969 62.486 106.953 64.3752 106.953 67.7829C106.953 71.1994 109.953 73.1005 113.727 73.1005C117.51 73.1005 120.526 71.2112 120.526 67.7829C120.526 64.3634 117.492 62.486 113.727 62.486ZM114.889 72.0384C113.459 72.3309 111.784 70.6662 111.149 68.322C110.514 65.9779 111.158 63.8405 112.588 63.5495C114.018 63.257 115.693 64.9217 116.328 67.2659C116.964 69.6101 116.32 71.7459 114.889 72.0384Z" fill="#E62B5B"/>
<path fill-rule="evenodd" clip-rule="evenodd" d="M130.843 62.5273C130.059 62.5214 129.222 62.6278 128.446 62.997C127.687 63.3589 126.994 63.8567 126.301 64.3294V62.5687L122.114 63.5864V65.3693V66.4446V71.6913V73.1019H122.162H126.301V71.5849V69.805V65.8951C127.176 65.2496 129.861 63.6706 129.861 65.7991V71.5849V73.1019H134V71.5849V65.6721V65.3338C133.998 63.3826 132.548 62.5391 130.843 62.5273Z" fill="#E62B5B"/>
<path fill-rule="evenodd" clip-rule="evenodd" d="M95.2424 63.7592C94.1996 62.8552 92.9558 62.5436 91.7165 62.4845C88.6767 62.3412 85.6589 64.3855 85.6589 67.6898C85.6589 70.9394 89.2276 73.7681 92.817 72.9616C93.8229 72.7356 94.6767 72.1876 95.3945 71.4756V73.1004H99.5304L99.5334 62.7371L95.3945 63.7164L95.2424 63.7592ZM93.5541 71.0177C92.1242 71.3146 90.5585 70 90.009 67.9365C88.6678 62.8936 94.0208 62.4934 95.1833 66.8626C95.7328 68.9276 94.9824 70.7208 93.5541 71.0177Z" fill="#E62B5B"/>
<path fill-rule="evenodd" clip-rule="evenodd" d="M101.284 73.1019H105.422V58.805L101.284 59.7843V73.1019Z" fill="#E62B5B"/>
</svg>
