<svg width="205" height="408" viewBox="0 0 205 408" fill="none" xmlns="http://www.w3.org/2000/svg">
<rect x="0.5" y="0.5" width="204" height="407" rx="19.5" fill="white" stroke="#E6E5E5"/>
<path d="M190.67 33.76C190.67 22.35 181.33 13.02 169.92 13.01H147.19C146.23 13.01 145.45 13.79 145.45 14.75C145.45 21.42 139.99 26.88 133.32 26.88H65.39C58.72 26.88 53.26 21.42 53.26 14.75V14.74C53.26 13.78 52.48 13 51.52 13H34.75C23.34 13 14 22.34 14 33.75L14.03 374.89C14.03 386.3 23.37 395.63 34.78 395.64L169.96 395.65C181.37 395.65 190.71 386.31 190.71 374.9L190.67 33.76Z" fill="#F7F7F7"/>
<rect x="54" y="64" width="97" height="10" fill="#CDCBCB"/>
</svg>
