<svg width="205" height="408" viewBox="0 0 205 408" fill="none" xmlns="http://www.w3.org/2000/svg">
<rect x="0.5" y="0.5" width="204" height="407" rx="19.5" fill="white" stroke="#E6E5E5"/>
<path d="M190.67 33.76C190.67 22.35 181.33 13.02 169.92 13.01H147.19C146.23 13.01 145.45 13.79 145.45 14.75C145.45 21.42 139.99 26.88 133.32 26.88H65.39C58.72 26.88 53.26 21.42 53.26 14.75V14.74C53.26 13.78 52.48 13 51.52 13H34.75C23.34 13 14 22.34 14 33.75L14.03 374.89C14.03 386.3 23.37 395.63 34.78 395.64L169.96 395.65C181.37 395.65 190.71 386.31 190.71 374.9L190.67 33.76Z" fill="#F7F7F7"/>
<rect x="57" y="78" width="97" height="10" fill="#CDCBCB"/>
<path d="M96.3361 17.5208C99.3907 13.6754 105.23 13.6754 108.285 17.5208C109.735 19.3469 111.941 20.4093 114.273 20.4048C119.184 20.3955 122.825 24.9607 121.723 29.7464C121.2 32.0191 121.745 34.4062 123.202 36.2268C126.271 40.0605 124.972 45.7532 120.543 47.8756C118.44 48.8834 116.914 50.7978 116.399 53.0724C115.315 57.8623 110.054 60.3959 105.634 58.2566C103.535 57.2407 101.086 57.2407 98.9868 58.2566C94.5663 60.3959 89.3054 57.8623 88.2217 53.0724C87.7071 50.7978 86.1805 48.8834 84.0774 47.8756C79.6487 45.7532 78.3494 40.0605 81.4186 36.2268C82.8761 34.4062 83.421 32.0191 82.8977 29.7464C81.7958 24.9607 85.4364 20.3955 90.3474 20.4048C92.6795 20.4093 94.8856 19.3469 96.3361 17.5208Z" fill="#E62B5B"/>
<path fill-rule="evenodd" clip-rule="evenodd" d="M95.994 39V35C95.994 31.686 98.683 29 102 29C105.317 29 108.006 31.686 108.006 35V39C108.006 39.986 108.454 40.919 109.223 41.537L109.532 41.785C110.449 42.521 109.928 44 108.752 44H95.248C94.072 44 93.551 42.521 94.468 41.785L94.777 41.537C95.547 40.919 95.994 39.986 95.994 39Z" stroke="white" stroke-width="1.5" stroke-linecap="round" stroke-linejoin="round"/>
<path d="M100.5 47H103.5" stroke="white" stroke-width="1.5" stroke-linecap="round" stroke-linejoin="round"/>
</svg>
